<svg width="12" height="12" viewBox="0 0 12 12" fill="none" xmlns="http://www.w3.org/2000/svg">
<path d="M11.7396 5.46693C11.9758 5.23388 12.0592 4.89186 11.9573 4.57392C11.8552 4.25599 11.5892 4.02903 11.2624 3.98086L8.35684 3.55346C8.23309 3.53521 8.12617 3.45664 8.0709 3.34304L6.77192 0.677896C6.62606 0.378445 6.33003 0.192352 6.00012 0.192352C5.67045 0.192352 5.37442 0.378445 5.22856 0.677896L3.92934 3.34328C3.87407 3.45688 3.76691 3.53545 3.64316 3.5537L0.737627 3.9811C0.411079 4.02903 0.144842 4.25623 0.042721 4.57417C-0.0591601 4.89211 0.024219 5.23413 0.26042 5.46717L2.36268 7.54168C2.4523 7.63022 2.49339 7.75769 2.47225 7.88224L1.9763 10.8116C1.93233 11.0694 1.99913 11.3202 2.16396 11.518C2.42011 11.8262 2.86728 11.9201 3.22482 11.7299L5.82327 10.3467C5.93188 10.289 6.0686 10.2895 6.17697 10.3467L8.77566 11.7299C8.90205 11.7972 9.03685 11.8313 9.17597 11.8313C9.42996 11.8313 9.67072 11.717 9.83628 11.518C10.0014 11.3202 10.0679 11.0689 10.0239 10.8116L9.52775 7.88224C9.50661 7.75745 9.5477 7.63022 9.63732 7.54168L11.7396 5.46693Z" fill="#9D2929"/>
</svg>
