<svg width="12" height="12" viewBox="0 0 12 12" fill="none" xmlns="http://www.w3.org/2000/svg">
<path d="M11.7396 5.46727C11.9758 5.23422 12.0592 4.89219 11.9573 4.57425C11.8552 4.25631 11.5892 4.02934 11.2624 3.98117L8.35677 3.55376C8.23302 3.53552 8.12609 3.45694 8.07082 3.34334L6.77181 0.677905C6.62596 0.378449 6.32992 0.192352 6 0.192352C5.67032 0.192352 5.37428 0.378449 5.22843 0.677905L3.92918 3.34334C3.87391 3.45694 3.76674 3.53552 3.64299 3.55376L0.737401 3.98142C0.410847 4.02934 0.144845 4.25631 0.0427218 4.57425C-0.0591613 4.89219 0.0242195 5.23422 0.260425 5.46727L2.36272 7.54182C2.45235 7.63036 2.49344 7.75783 2.4723 7.88239L1.9761 10.812C1.92035 11.1411 2.05131 11.4674 2.31827 11.6639C2.58499 11.8607 2.93221 11.8863 3.22465 11.7303L5.82315 10.3471C5.93392 10.2883 6.06608 10.2883 6.17685 10.3471L8.77559 11.7303C8.90247 11.7979 9.03991 11.8313 9.17664 11.8313C9.35421 11.8313 9.53107 11.7751 9.68197 11.6639C9.94893 11.4674 10.0799 11.1411 10.0241 10.812L9.5277 7.88263C9.50656 7.75783 9.54765 7.63061 9.63727 7.54206L11.7396 5.46727ZM9.05433 7.96485L9.55053 10.8942C9.57552 11.0416 9.51905 11.1825 9.39939 11.2706C9.27948 11.3584 9.13026 11.3691 8.9993 11.3L6.40056 9.91655C6.27537 9.85014 6.13745 9.81657 6 9.81657C5.86255 9.81657 5.72487 9.85014 5.59944 9.91679L3.00118 11.3C2.86974 11.3691 2.72052 11.3584 2.60085 11.2706C2.48119 11.1825 2.42496 11.0419 2.44971 10.8942L2.94591 7.96485C2.99373 7.68218 2.90122 7.39367 2.69841 7.19371L0.59587 5.11892C0.489902 5.01431 0.453859 4.8669 0.499754 4.72459C0.545409 4.58203 0.660028 4.48424 0.806364 4.46259L3.71171 4.03518C3.99213 3.99407 4.23459 3.816 4.35978 3.55863L5.65903 0.893193C5.72439 0.758912 5.85198 0.678878 5.99976 0.678878C6.14778 0.678878 6.27513 0.758912 6.34073 0.893193L7.63998 3.55863C7.76517 3.816 8.00739 3.99407 8.2878 4.03518L11.1934 4.46259C11.3397 4.48424 11.4544 4.58203 11.5 4.72459C11.5457 4.8669 11.5099 5.01431 11.4039 5.11892L9.30159 7.19346C9.09878 7.39367 9.00627 7.68194 9.05433 7.96485Z" fill="#9D2929"/>
</svg>
